HIERARCHY
ROOT Hips
{
	OFFSET 0 0 0
	CHANNELS 6 Xposition Yposition Zposition Yrotation Xrotation Zrotation
	JOINT Spine
	{
		OFFSET -0 7.96124 -2.53765
		CHANNELS 3 Yrotation Xrotation Zrotation
		JOINT Spine1
		{
			OFFSET -0 8.14037 0
			CHANNELS 3 Yrotation Xrotation Zrotation
			JOINT Spine2
			{
				OFFSET -0 8.14037 0
				CHANNELS 3 Yrotation Xrotation Zrotation
				JOINT Spine3
				{
					OFFSET -0 8.14037 0
					CHANNELS 3 Yrotation Xrotation Zrotation
					JOINT Neck
					{
						OFFSET -0 14.0192 3.53765
						CHANNELS 3 Yrotation Xrotation Zrotation
						JOINT Head
						{
							OFFSET -0 9.95155 0
							CHANNELS 3 Yrotation Xrotation Zrotation
							End Site
							{
								OFFSET 0 15 0
							}
						}
					}
					JOINT LeftShoulder
					{
						OFFSET 1.65859 2.44779 3.31718
						CHANNELS 3 Yrotation Xrotation Zrotation
						JOINT LeftArm
						{
							OFFSET 18.8215 0 0
							CHANNELS 3 Yrotation Xrotation Zrotation
							JOINT LeftForeArm
							{
								OFFSET 24.369 0 0
								CHANNELS 3 Yrotation Xrotation Zrotation
								JOINT LeftHand
								{
									OFFSET 20.693 0 0
									CHANNELS 3 Yrotation Xrotation Zrotation
									JOINT LeftHandThumb1
									{
										OFFSET 4.77279 0 2.93781
										CHANNELS 3 Yrotation Xrotation Zrotation
										JOINT LeftHandThumb2
										{
											OFFSET 3 0 1
											CHANNELS 3 Yrotation Xrotation Zrotation
											JOINT LeftHandThumb3
											{
												OFFSET 2.1 0 0
												CHANNELS 3 Yrotation Xrotation Zrotation
												JOINT LeftHandThumb4
												{
													OFFSET 1.305 0 0
													CHANNELS 3 Yrotation Xrotation Zrotation
													End Site
													{
														OFFSET -0 0 0
													}
												}
											}
										}
									}
									JOINT LeftHandIndex1
									{
										OFFSET 8.85787 0 3.70426
										CHANNELS 3 Yrotation Xrotation Zrotation
										JOINT LeftHandIndex2
										{
											OFFSET 3.5 0 0
											CHANNELS 3 Yrotation Xrotation Zrotation
											JOINT LeftHandIndex3
											{
												OFFSET 2.45 0 0
												CHANNELS 3 Yrotation Xrotation Zrotation
												JOINT LeftHandIndex4
												{
													OFFSET 1.5225 0 0
													CHANNELS 3 Yrotation Xrotation Zrotation
													End Site
													{
														OFFSET -0 0 0
													}
												}
											}
										}
									}
									JOINT LeftHandMiddle1
									{
										OFFSET 8.9513 0 1.15177
										CHANNELS 3 Yrotation Xrotation Zrotation
										JOINT LeftHandMiddle2
										{
											OFFSET 4.6 0 0
											CHANNELS 3 Yrotation Xrotation Zrotation
											JOINT LeftHandMiddle3
											{
												OFFSET 3.22 0 0
												CHANNELS 3 Yrotation Xrotation Zrotation
												JOINT LeftHandMiddle4
												{
													OFFSET 2.001 0 0
													CHANNELS 3 Yrotation Xrotation Zrotation
													End Site
													{
														OFFSET -0 0 0
													}
												}
											}
										}
									}
									JOINT LeftHandRing1
									{
										OFFSET 8.74474 0 -1.40072
										CHANNELS 3 Yrotation Xrotation Zrotation
										JOINT LeftHandRing2
										{
											OFFSET 3.75 0 0
											CHANNELS 3 Yrotation Xrotation Zrotation
											JOINT LeftHandRing3
											{
												OFFSET 2.625 0 0
												CHANNELS 3 Yrotation Xrotation Zrotation
												JOINT LeftHandRing4
												{
													OFFSET 1.63125 0 0
													CHANNELS 3 Yrotation Xrotation Zrotation
													End Site
													{
														OFFSET -0 0 0
													}
												}
											}
										}
									}
									JOINT LeftHandPinky1
									{
										OFFSET 8.23817 0 -3.95321
										CHANNELS 3 Yrotation Xrotation Zrotation
										JOINT LeftHandPinky2
										{
											OFFSET 2.875 0 0
											CHANNELS 3 Yrotation Xrotation Zrotation
											JOINT LeftHandPinky3
											{
												OFFSET 2.0125 0 0
												CHANNELS 3 Yrotation Xrotation Zrotation
												JOINT LeftHandPinky4
												{
													OFFSET 1.25062 0 0
													CHANNELS 3 Yrotation Xrotation Zrotation
													End Site
													{
														OFFSET -0 0 0
													}
												}
											}
										}
									}
								}
							}
						}
					}
					JOINT RightShoulder
					{
						OFFSET -1.65859 2.44779 3.31718
						CHANNELS 3 Yrotation Xrotation Zrotation
						JOINT RightArm
						{
							OFFSET -18.8215 0 0
							CHANNELS 3 Yrotation Xrotation Zrotation
							JOINT RightForeArm
							{
								OFFSET -24.369 0 0
								CHANNELS 3 Yrotation Xrotation Zrotation
								JOINT RightHand
								{
									OFFSET -20.693 0 0
									CHANNELS 3 Yrotation Xrotation Zrotation
									JOINT RightHandThumb1
									{
										OFFSET -4.49526 0 1.86793
										CHANNELS 3 Yrotation Xrotation Zrotation
										JOINT RightHandThumb2
										{
											OFFSET -3 0 1
											CHANNELS 3 Yrotation Xrotation Zrotation
											JOINT RightHandThumb3
											{
												OFFSET -2.1 0 0
												CHANNELS 3 Yrotation Xrotation Zrotation
												JOINT RightHandThumb4
												{
													OFFSET -1.305 0 0
													CHANNELS 3 Yrotation Xrotation Zrotation
													End Site
													{
														OFFSET -0 0 0
													}
												}
											}
										}
									}
									JOINT RightHandIndex1
									{
										OFFSET -9.23757 0 2.80764
										CHANNELS 3 Yrotation Xrotation Zrotation
										JOINT RightHandIndex2
										{
											OFFSET -3.5 0 0
											CHANNELS 3 Yrotation Xrotation Zrotation
											JOINT RightHandIndex3
											{
												OFFSET -2.45 0 0
												CHANNELS 3 Yrotation Xrotation Zrotation
												JOINT RightHandIndex4
												{
													OFFSET -1.5225 0 0
													CHANNELS 3 Yrotation Xrotation Zrotation
													End Site
													{
														OFFSET -0 0 0
													}
												}
											}
										}
									}
									JOINT RightHandMiddle1
									{
										OFFSET -8.70766 0 0.787911
										CHANNELS 3 Yrotation Xrotation Zrotation
										JOINT RightHandMiddle2
										{
											OFFSET -4.6 0 0
											CHANNELS 3 Yrotation Xrotation Zrotation
											JOINT RightHandMiddle3
											{
												OFFSET -3.22 0 0
												CHANNELS 3 Yrotation Xrotation Zrotation
												JOINT RightHandMiddle4
												{
													OFFSET -2.001 0 0
													CHANNELS 3 Yrotation Xrotation Zrotation
													End Site
													{
														OFFSET -0 0 0
													}
												}
											}
										}
									}
									JOINT RightHandRing1
									{
										OFFSET -7.87775 0 -1.23182
										CHANNELS 3 Yrotation Xrotation Zrotation
										JOINT RightHandRing2
										{
											OFFSET -3.75 0 0
											CHANNELS 3 Yrotation Xrotation Zrotation
											JOINT RightHandRing3
											{
												OFFSET -2.625 0 0
												CHANNELS 3 Yrotation Xrotation Zrotation
												JOINT RightHandRing4
												{
													OFFSET -1.63125 0 0
													CHANNELS 3 Yrotation Xrotation Zrotation
													End Site
													{
														OFFSET -0 0 0
													}
												}
											}
										}
									}
									JOINT RightHandPinky1
									{
										OFFSET -6.74784 0 -3.25155
										CHANNELS 3 Yrotation Xrotation Zrotation
										JOINT RightHandPinky2
										{
											OFFSET -2.875 0 0
											CHANNELS 3 Yrotation Xrotation Zrotation
											JOINT RightHandPinky3
											{
												OFFSET -2.0125 0 0
												CHANNELS 3 Yrotation Xrotation Zrotation
												JOINT RightHandPinky4
												{
													OFFSET -1.25062 0 0
													CHANNELS 3 Yrotation Xrotation Zrotation
													End Site
													{
														OFFSET -0 0 0
													}
												}
											}
										}
									}
								}
							}
						}
					}
				}
			}
		}
	}
	JOINT LeftUpLeg
	{
		OFFSET 9.95155 -3.31718 3
		CHANNELS 3 Yrotation Xrotation Zrotation
		JOINT LeftLeg
		{
			OFFSET -0 -43.2932 2.32203
			CHANNELS 3 Yrotation Xrotation Zrotation
			JOINT LeftFoot
			{
				OFFSET -0 -34.5003 -2.32203
				CHANNELS 3 Yrotation Xrotation Zrotation
				JOINT LeftToeBase
				{
					OFFSET -0 -8.48975 8.93072
					CHANNELS 3 Yrotation Xrotation Zrotation
					End Site
					{
						OFFSET 0 0 5
					}
				}
			}
		}
	}
	JOINT RightUpLeg
	{
		OFFSET -9.95155 -3.31718 3
		CHANNELS 3 Yrotation Xrotation Zrotation
		JOINT RightLeg
		{
			OFFSET -0 -43.2932 2.32203
			CHANNELS 3 Yrotation Xrotation Zrotation
			JOINT RightFoot
			{
				OFFSET -0 -34.5003 -2.32203
				CHANNELS 3 Yrotation Xrotation Zrotation
				JOINT RightToeBase
				{
					OFFSET -0 -8.48975 8.93072
					CHANNELS 3 Yrotation Xrotation Zrotation
					End Site
					{
						OFFSET 0 0 5
					}
				}
			}
		}
	}
}
MOTION
Frames: 4
Frame Time: 0.0047619
0 90.430801 0 0 0 0 0 0 0 0 0 0 0 0 0 0 0 0 0 0 0 0 0 0 0 0 0 0 0 0 0 0 0 0 0 0 0 0 0 0 0 0 0 0 0 0 0 0 0 0 0 0 0 0 0 0 0 0 0 0 0 0 0 0 0 0 0 0 0 0 0 0 0 0 0 0 0 0 0 0 0 0 0 0 0 0 0 0 0 0 0 0 0 0 0 0 0 0 0 0 0 0 0 0 0 0 0 0 0 0 0 0 0 0 0 0 0 0 0 0 0 0 0 0 0 0 0 0 0 0 0 0 0 0 0 0 0 0 0 0 0 0 0 0 0 0 0 0 0 0 0 0 0 0 0 0 0 0 0 0 0 0 0 0 0 0 0 0 0 0 0 0 0 0 0 0 0 0 0 0 0 0 0 0 0 0 0 0 0 0 0 0
-15.610173 90.306335 10.145057 -0.024902 2.246410 2.950316 0.976741 -1.059478 -1.718529 1.206672 -1.103533 -1.108305 1.059365 -1.085727 -0.515875 1.093894 -1.121039 -0.079790 1.298492 8.878014 1.037187 0.718175 -1.739483 2.824138 2.164024 -1.793095 15.332771 -12.251292 6.999141 0.841659 -6.647909 -0.958819 -1.562303 21.188265 -2.073708 -26.897007 -23.431916 -5.031487 2.861975 -26.982650 -5.669797 3.462113 -37.759695 5.327284 -14.587016 0.000004 0.000007 9.782115 0.000004 0.000007 9.782115 -0.000010 0.000002 7.825693 -0.000001 -0.000004 3.912846 0.000002 0.000002 12.499998 0.000002 0.000002 12.499998 -0.000005 -0.000000 9.999999 0.000000 -0.000003 5.000001 0.000002 0.000002 12.499998 0.000002 0.000002 12.499998 -0.000005 -0.000000 9.999999 0.000000 -0.000003 5.000001 -0.000001 0.000068 9.091341 -0.000001 0.000068 9.091341 -0.000004 0.000048 7.273073 -0.000005 0.000023 3.636538 -121.229708 -0.337370 -179.400905 -10.877568 0.280668 -13.216620 13.627695 4.456882 -0.945242 5.940773 1.629418 1.061121 -9.613611 5.737390 29.542473 6.923651 -2.621758 1.712520 7.957052 -3.032334 1.941983 -44.436571 -2.351271 9.525940 0.000003 -0.000000 -12.500003 0.000003 -0.000000 -12.500003 -0.000010 0.000001 -9.999995 0.000000 0.000001 -5.000002 0.000128 -0.000009 64.418950 0.000128 -0.000009 64.418950 0.000050 0.000088 51.535146 -0.000023 0.000045 25.767590 -0.000046 0.000003 -1.400048 -0.000046 0.000003 -1.400048 -0.000034 0.000003 -1.120037 -0.000017 0.000001 -0.560019 -0.000181 0.000010 5.847137 -0.000181 0.000010 5.847137 -0.000145 -0.000006 4.677707 -0.000078 -0.000009 2.338849 -23.431916 -5.031487 2.861975 4.461535 -0.600840 1.241927 0.000000 3.618597 0.000000 -4.172284 1.541014 3.404514 0.000000 -8.154459 0.000000 -2.136931 2.915088 -8.346505 0.000000 -1.169349 0.000000 -16.151351 -0.988754 7.083417 0.000000 -3.698831 0.000000
-15.610109 90.306732 10.111836 -0.055908 2.233185 2.942580 0.986909 -1.065902 -1.717481 1.214854 -1.089491 -1.109242 1.048879 -1.065374 -0.521064 1.081250 -1.137493 -0.091122 1.264707 8.904683 1.095829 0.708076 -1.724864 2.899712 2.161700 -1.784189 15.387827 -12.276270 6.973625 0.814092 -6.641959 -0.911424 -1.561817 21.238827 -2.040912 -26.903552 -23.431916 -5.031487 2.861975 -26.982650 -5.669797 3.462113 -37.759695 5.327284 -14.587016 0.000004 0.000007 9.782115 0.000004 0.000007 9.782115 -0.000010 0.000002 7.825693 -0.000001 -0.000004 3.912846 0.000002 0.000002 12.499998 0.000002 0.000002 12.499998 -0.000005 -0.000000 9.999999 0.000000 -0.000003 5.000001 0.000002 0.000002 12.499998 0.000002 0.000002 12.499998 -0.000005 -0.000000 9.999999 0.000000 -0.000003 5.000001 -0.000001 0.000068 9.091341 -0.000001 0.000068 9.091341 -0.000004 0.000048 7.273073 -0.000005 0.000023 3.636538 -121.229708 -0.337370 -179.400905 -10.857564 0.297658 -13.238452 13.678623 4.449224 -0.895624 5.940717 1.628141 1.067335 -9.675308 5.745748 29.589388 6.923651 -2.621758 1.712520 7.957052 -3.032334 1.941983 -44.436571 -2.351271 9.525940 0.000003 -0.000000 -12.500003 0.000003 -0.000000 -12.500003 -0.000010 0.000001 -9.999995 0.000000 0.000001 -5.000002 0.000128 -0.000009 64.418950 0.000128 -0.000009 64.418950 0.000050 0.000088 51.535146 -0.000023 0.000045 25.767590 -0.000046 0.000003 -1.400048 -0.000046 0.000003 -1.400048 -0.000034 0.000003 -1.120037 -0.000017 0.000001 -0.560019 -0.000181 0.000010 5.847137 -0.000181 0.000010 5.847137 -0.000145 -0.000006 4.677707 -0.000078 -0.000009 2.338849 -23.431916 -5.031487 2.861975 4.440888 -0.602924 1.272606 0.000000 3.624657 0.000000 -4.199808 1.495072 3.233597 0.000000 -8.121303 0.000000 -2.124684 2.903811 -8.338805 0.000000 -1.181590 0.000000 -16.114158 -0.941718 7.039235 0.000000 -3.720049 0.000000
-15.610298 90.308667 10.078403 -0.094741 2.216846 2.938789 0.989985 -1.059885 -1.717464 1.215908 -1.091906 -1.113452 1.045413 -1.050962 -0.529099 1.076701 -1.118315 -0.094225 1.231364 8.881052 1.150474 0.696554 -1.657313 2.952964 2.145870 -1.811750 15.415733 -12.274652 6.948474 0.807142 -6.647122 -0.960099 -1.547935 21.284346 -1.889790 -26.875810 -23.431916 -5.031487 2.861975 -26.982650 -5.669797 3.462113 -37.759695 5.327284 -14.587016 0.000004 0.000007 9.782115 0.000004 0.000007 9.782115 -0.000010 0.000002 7.825693 -0.000001 -0.000004 3.912846 0.000002 0.000002 12.499998 0.000002 0.000002 12.499998 -0.000005 -0.000000 9.999999 0.000000 -0.000003 5.000001 0.000002 0.000002 12.499998 0.000002 0.000002 12.499998 -0.000005 -0.000000 9.999999 0.000000 -0.000003 5.000001 -0.000001 0.000068 9.091341 -0.000001 0.000068 9.091341 -0.000004 0.000048 7.273073 -0.000005 0.000023 3.636538 -121.229708 -0.337370 -179.400905 -10.828622 0.267407 -13.254252 13.739671 4.490679 -0.847638 5.930867 1.609053 1.063150 -9.726182 5.753434 29.652251 6.923651 -2.621758 1.712520 7.957052 -3.032334 1.941983 -44.436571 -2.351271 9.525940 0.000003 -0.000000 -12.500003 0.000003 -0.000000 -12.500003 -0.000010 0.000001 -9.999995 0.000000 0.000001 -5.000002 0.000128 -0.000009 64.418950 0.000128 -0.000009 64.418950 0.000050 0.000088 51.535146 -0.000023 0.000045 25.767590 -0.000046 0.000003 -1.400048 -0.000046 0.000003 -1.400048 -0.000034 0.000003 -1.120037 -0.000017 0.000001 -0.560019 -0.000181 0.000010 5.847137 -0.000181 0.000010 5.847137 -0.000145 -0.000006 4.677707 -0.000078 -0.000009 2.338849 -23.431916 -5.031487 2.861975 4.363789 -0.596559 1.305752 0.000000 3.624786 0.000000 -4.124706 1.464492 3.019050 0.000000 -8.094420 0.000000 -2.107233 2.891388 -8.335966 0.000000 -1.185793 0.000000 -16.100691 -0.908418 7.037709 0.000000 -3.753616 0.000000
